<svg width="93" height="20" viewBox="0 0 93 20" fill="none" xmlns="http://www.w3.org/2000/svg">
<g clip-path="url(#clip0_1_559)">
<path d="M33.1004 11.3345L32.5572 12.8703H32.5119C32.4214 12.524 32.2554 11.997 31.9838 11.3646L29.0715 4.06195H26.2195V15.701H28.1057V8.51882C28.1057 8.06711 28.1057 7.55517 28.0907 6.92278C28.0756 6.60658 28.0454 6.36567 28.0303 6.18498H28.0756C28.1661 6.63669 28.2717 6.96795 28.3472 7.17875L31.848 15.6709H33.1758L36.6465 7.10346C36.7219 6.90772 36.7973 6.51624 36.8728 6.18498H36.9181C36.8728 7.04323 36.8426 7.81114 36.8275 8.27791V15.6558H38.8344V4.03183H36.0881L33.1004 11.3345ZM40.7357 7.31426H42.6974V15.6558H40.7357V7.31426ZM41.7316 3.79092C41.3997 3.79092 41.1281 3.91138 40.9017 4.12217C40.6754 4.33297 40.5547 4.604 40.5547 4.93525C40.5547 5.25145 40.6754 5.52248 40.9017 5.73327C41.1281 5.94407 41.3997 6.04947 41.7316 6.04947C42.0636 6.04947 42.3503 5.92901 42.5616 5.73327C42.7879 5.52248 42.9086 5.25145 42.9086 4.93525C42.9086 4.61906 42.7879 4.34803 42.5616 4.12217C42.3654 3.91138 42.0787 3.79092 41.7316 3.79092ZM49.6537 7.23897C49.2915 7.16369 48.9143 7.11852 48.5521 7.11852C47.6619 7.11852 46.847 7.31426 46.168 7.70574C45.489 8.09722 44.9457 8.63928 44.5987 9.31684C44.2365 10.0095 44.0554 10.8075 44.0554 11.726C44.0554 12.524 44.2365 13.2317 44.5836 13.8791C44.9306 14.5115 45.4135 15.0234 46.0624 15.3698C46.681 15.7161 47.4053 15.8967 48.2202 15.8967C49.1557 15.8967 49.9555 15.701 50.5892 15.3396L50.6043 15.3246V13.5177L50.5289 13.578C50.2422 13.7888 49.9102 13.9695 49.5782 14.0749C49.2312 14.1953 48.9143 14.2555 48.6427 14.2555C47.858 14.2555 47.2394 14.0297 46.8018 13.5328C46.3491 13.051 46.1227 12.3885 46.1227 11.5603C46.1227 10.7021 46.3491 10.0245 46.8168 9.52764C47.2846 9.03076 47.9033 8.77479 48.6578 8.77479C49.2915 8.77479 49.9404 8.98559 50.5289 9.40718L50.6043 9.46741V7.55517L50.5892 7.54011C50.3327 7.43471 50.046 7.31426 49.6537 7.23897ZM56.1271 7.17875C55.6443 7.17875 55.1916 7.32932 54.7992 7.64551C54.4673 7.91654 54.2409 8.30802 54.0448 8.77479H54.0297V7.31426H52.068V15.6558H54.0297V11.3947C54.0297 10.672 54.1806 10.0697 54.5125 9.63304C54.8445 9.18133 55.267 8.95547 55.7801 8.95547C55.9611 8.95547 56.1422 9.00064 56.3686 9.03076C56.5798 9.09098 56.7307 9.15121 56.8363 9.2265L56.9118 9.28673V7.32932L56.8665 7.31426C56.7307 7.22392 56.4591 7.17875 56.1271 7.17875ZM61.4688 7.13357C60.0957 7.13357 58.9941 7.54011 58.2246 8.33814C57.4399 9.13616 57.0627 10.2353 57.0627 11.6206C57.0627 12.9155 57.455 13.9695 58.2095 14.7374C58.964 15.4902 59.9901 15.8817 61.2727 15.8817C62.6157 15.8817 63.687 15.4752 64.4566 14.6621C65.2412 13.849 65.6185 12.7649 65.6185 11.4248C65.6185 10.0998 65.2563 9.04581 64.5169 8.27791C63.8077 7.51 62.7665 7.13357 61.4688 7.13357ZM63.0382 13.5479C62.676 14.0146 62.1026 14.2405 61.3934 14.2405C60.6842 14.2405 60.1108 14.0146 59.7034 13.5177C59.2959 13.051 59.0998 12.3734 59.0998 11.5152C59.0998 10.6268 59.311 9.94923 59.7034 9.46741C60.1108 8.98559 60.6691 8.74467 61.3783 8.74467C62.0724 8.74467 62.6157 8.97053 63.008 9.4373C63.4003 9.90406 63.6116 10.5816 63.6116 11.47C63.5814 12.3734 63.4154 13.0811 63.0382 13.5479ZM69.9945 10.7774C69.3758 10.5214 68.9835 10.3257 68.8024 10.16C68.6515 10.0095 68.576 9.79866 68.576 9.52764C68.576 9.30178 68.6666 9.07593 68.8929 8.92536C69.1193 8.77479 69.3758 8.6995 69.753 8.6995C70.085 8.6995 70.4321 8.75973 70.764 8.85007C71.096 8.94041 71.3978 9.07593 71.6392 9.25661L71.7147 9.31684V7.47989L71.6694 7.46483C71.4431 7.37449 71.1413 7.28414 70.7791 7.20886C70.417 7.14863 70.085 7.11852 69.8134 7.11852C68.8778 7.11852 68.1083 7.34437 67.5047 7.84125C66.9011 8.30802 66.6144 8.94041 66.6144 9.67821C66.6144 10.0697 66.6748 10.416 66.8106 10.7021C66.9464 10.9882 67.1425 11.2592 67.4141 11.485C67.6858 11.6958 68.0781 11.9368 68.6213 12.1626C69.074 12.3584 69.4211 12.5089 69.6323 12.6294C69.8436 12.7498 69.9794 12.8853 70.085 12.9907C70.1604 13.1112 70.2057 13.2618 70.2057 13.4575C70.2057 14.0146 69.7832 14.2856 68.9231 14.2856C68.5911 14.2856 68.2441 14.2254 67.8367 14.0899C67.4292 13.9544 67.052 13.7587 66.7351 13.5328L66.6597 13.4726V15.3848L66.7049 15.3999C66.9916 15.5354 67.3387 15.6257 67.7612 15.7311C68.1837 15.8064 68.561 15.8666 68.8929 15.8666C69.9039 15.8666 70.7339 15.6408 71.3223 15.1439C71.9259 14.6621 72.2428 14.0447 72.2428 13.2467C72.2428 12.6896 72.0919 12.1927 71.7599 11.8163C71.3223 11.4549 70.7791 11.0785 69.9945 10.7774ZM77.4185 7.13357C76.0454 7.13357 74.9439 7.54011 74.1743 8.33814C73.4047 9.13616 73.0124 10.2353 73.0124 11.6206C73.0124 12.9155 73.4047 13.9695 74.1592 14.7374C74.9137 15.4902 75.9398 15.8817 77.2224 15.8817C78.5654 15.8817 79.6367 15.4752 80.4063 14.6621C81.1909 13.849 81.5682 12.7649 81.5682 11.4248C81.5682 10.0998 81.206 9.04581 80.4666 8.27791C79.7574 7.51 78.7162 7.13357 77.4185 7.13357ZM78.9728 13.5479C78.6106 14.0146 78.0372 14.2405 77.328 14.2405C76.6037 14.2405 76.0454 14.0146 75.638 13.5177C75.2306 13.051 75.0344 12.3734 75.0344 11.5152C75.0344 10.6268 75.2456 9.94923 75.638 9.46741C76.0454 8.98559 76.6037 8.74467 77.3129 8.74467C77.992 8.74467 78.5503 8.97053 78.9426 9.4373C79.3349 9.90406 79.5462 10.5816 79.5462 11.47C79.5462 12.3734 79.35 13.0811 78.9728 13.5479ZM92.0555 8.92536V7.31426H90.0787V4.84491L90.0184 4.85997L88.1472 5.41708L88.102 5.43213V7.31426H85.1444V6.26027C85.1444 5.77844 85.2651 5.40202 85.4764 5.16111C85.6876 4.9202 86.0045 4.79974 86.3969 4.79974C86.6685 4.79974 86.9552 4.85997 87.2721 4.99548L87.3475 5.04065V3.33921L87.3022 3.32415C87.0306 3.23381 86.6685 3.17358 86.2007 3.17358C85.6122 3.17358 85.0992 3.3091 84.6314 3.53495C84.1636 3.79092 83.8165 4.13723 83.56 4.604C83.3035 5.05571 83.1677 5.56765 83.1677 6.15487V7.31426H81.7945V8.9103H83.1677V15.6558H85.1444V8.92536H88.102V13.2166C88.102 14.9783 88.9319 15.8666 90.5918 15.8666C90.8634 15.8666 91.1501 15.8215 91.4217 15.7763C91.7084 15.7161 91.9196 15.6408 92.0404 15.5806L92.0555 15.5655V13.9544L91.98 14.0146C91.8593 14.0899 91.7537 14.1501 91.5726 14.1953C91.4217 14.2405 91.2859 14.2555 91.1803 14.2555C90.7879 14.2555 90.5163 14.1652 90.3202 13.9393C90.1391 13.7285 90.0485 13.3822 90.0485 12.8703V8.92536H92.0555Z" fill="#737373"/>
<path d="M0.929413 0.147095H10.1793V9.37704H0.929413V0.147095Z" fill="#F25022"/>
<path d="M11.145 0.147095H20.3949V9.37704H11.145V0.147095Z" fill="#7FBA00"/>
<path d="M0.929413 10.3407H10.1793V19.5706H0.929413V10.3407Z" fill="#00A4EF"/>
<path d="M11.145 10.3407H20.3949V19.5706H11.145V10.3407Z" fill="#FFB900"/>
</g>
<defs>
<clipPath id="clip0_1_559">
<rect width="91.1412" height="19.4235" fill="white" transform="translate(0.929413 0.147095)"/>
</clipPath>
</defs>
</svg>
