<svg width="20" height="26" viewBox="0 0 20 26" fill="none" xmlns="http://www.w3.org/2000/svg">
<path d="M8.39999 0.200012C7.97564 0.200012 7.56868 0.368583 7.26862 0.668641C6.96856 0.9687 6.79999 1.37567 6.79999 1.80001C6.79999 2.22436 6.96856 2.63133 7.26862 2.93138C7.56868 3.23144 7.97564 3.40001 8.39999 3.40001H11.6C12.0243 3.40001 12.4313 3.23144 12.7314 2.93138C13.0314 2.63133 13.2 2.22436 13.2 1.80001C13.2 1.37567 13.0314 0.9687 12.7314 0.668641C12.4313 0.368583 12.0243 0.200012 11.6 0.200012H8.39999Z" fill="#121212"/>
<path fill-rule="evenodd" clip-rule="evenodd" d="M0.400024 4.99999C0.400024 4.15129 0.737166 3.33736 1.33728 2.73725C1.9374 2.13713 2.75133 1.79999 3.60002 1.79999C3.60002 3.07303 4.10574 4.29393 5.00591 5.1941C5.90609 6.09427 7.12699 6.59999 8.40002 6.59999H11.6C12.8731 6.59999 14.094 6.09427 14.9941 5.1941C15.8943 4.29393 16.4 3.07303 16.4 1.79999C17.2487 1.79999 18.0626 2.13713 18.6628 2.73725C19.2629 3.33736 19.6 4.15129 19.6 4.99999V22.6C19.6 23.4487 19.2629 24.2626 18.6628 24.8627C18.0626 25.4628 17.2487 25.8 16.4 25.8H3.60002C2.75133 25.8 1.9374 25.4628 1.33728 24.8627C0.737166 24.2626 0.400024 23.4487 0.400024 22.6V4.99999ZM5.20002 11.4C4.77568 11.4 4.36871 11.5686 4.06865 11.8686C3.7686 12.1687 3.60002 12.5756 3.60002 13C3.60002 13.4243 3.7686 13.8313 4.06865 14.1314C4.36871 14.4314 4.77568 14.6 5.20002 14.6H5.21602C5.64037 14.6 6.04734 14.4314 6.3474 14.1314C6.64745 13.8313 6.81602 13.4243 6.81602 13C6.81602 12.5756 6.64745 12.1687 6.3474 11.8686C6.04734 11.5686 5.64037 11.4 5.21602 11.4H5.20002ZM10 11.4C9.57568 11.4 9.16871 11.5686 8.86865 11.8686C8.5686 12.1687 8.40002 12.5756 8.40002 13C8.40002 13.4243 8.5686 13.8313 8.86865 14.1314C9.16871 14.4314 9.57568 14.6 10 14.6H14.8C15.2244 14.6 15.6313 14.4314 15.9314 14.1314C16.2315 13.8313 16.4 13.4243 16.4 13C16.4 12.5756 16.2315 12.1687 15.9314 11.8686C15.6313 11.5686 15.2244 11.4 14.8 11.4H10ZM5.20002 17.8C4.77568 17.8 4.36871 17.9686 4.06865 18.2686C3.7686 18.5687 3.60002 18.9756 3.60002 19.4C3.60002 19.8243 3.7686 20.2313 4.06865 20.5314C4.36871 20.8314 4.77568 21 5.20002 21H5.21602C5.64037 21 6.04734 20.8314 6.3474 20.5314C6.64745 20.2313 6.81602 19.8243 6.81602 19.4C6.81602 18.9756 6.64745 18.5687 6.3474 18.2686C6.04734 17.9686 5.64037 17.8 5.21602 17.8H5.20002ZM10 17.8C9.57568 17.8 9.16871 17.9686 8.86865 18.2686C8.5686 18.5687 8.40002 18.9756 8.40002 19.4C8.40002 19.8243 8.5686 20.2313 8.86865 20.5314C9.16871 20.8314 9.57568 21 10 21H14.8C15.2244 21 15.6313 20.8314 15.9314 20.5314C16.2315 20.2313 16.4 19.8243 16.4 19.4C16.4 18.9756 16.2315 18.5687 15.9314 18.2686C15.6313 17.9686 15.2244 17.8 14.8 17.8H10Z" fill="#1D1D1D"/>
</svg>
