<svg width="26" height="26" viewBox="0 0 26 26" fill="none" xmlns="http://www.w3.org/2000/svg">
<path d="M11.6667 4.84267V22.6533C11.6663 23.206 11.4709 23.7407 11.1149 24.1634C10.7589 24.5861 10.2651 24.8695 9.72063 24.9639C9.17612 25.0582 8.61578 24.9574 8.13834 24.6791C7.6609 24.4008 7.29698 23.9629 7.1107 23.4427L4.24804 15.2427L11.6667 4.84267ZM21 14.3333C22.0609 14.3333 23.0783 13.9119 23.8285 13.1618C24.5786 12.4116 25 11.3942 25 10.3333C25 9.27247 24.5786 8.25505 23.8285 7.50491C23.0783 6.75476 22.0609 6.33333 21 6.33333V14.3333ZM4.24804 15.244C3.11633 14.7628 2.18562 13.9054 1.61341 12.8169C1.0412 11.7284 0.862646 10.4756 1.10795 9.27053C1.35326 8.06549 2.00736 6.9822 2.95957 6.204C3.91178 5.4258 5.10361 5.00047 6.33337 5H8.77604C14.2427 5 18.9427 3.35467 21 1V19.6667C18.9427 17.312 14.244 15.6667 8.77604 15.6667H6.33337C5.61688 15.6677 4.90757 15.5239 4.24804 15.244V15.244Z" stroke="#1D1D1D" stroke-width="2" stroke-linecap="round" stroke-linejoin="round"/>
</svg>
